<?xml version="1.0" encoding="UTF-8" standalone="no"?>
<svg width="24px" height="24px" viewBox="0 0 24 24" version="1.1" xmlns="http://www.w3.org/2000/svg" xmlns:xlink="http://www.w3.org/1999/xlink" xmlns:sketch="http://www.bohemiancoding.com/sketch/ns">
    <title>Slice 1</title>
    <description>Created with Sketch (http://www.bohemiancoding.com/sketch)</description>
    <defs></defs>
    <g id="Page-1" stroke="none" stroke-width="1" fill="none" fill-rule="evenodd" sketch:type="MSPage">
        <g id="Fill-60-+-Fill-61" sketch:type="MSLayerGroup" fill="#FFFFFF">
            <path d="M12,23 C5.935,23 1,18.065 1,12 C1,5.934 5.935,1 12,1 C18.066,1 23,5.934 23,12 C23,18.065 18.066,23 12,23 L12,23 Z M12,0 C5.373,0 0,5.373 0,12 C0,18.627 5.373,24 12,24 C18.627,24 24,18.627 24,12 C24,5.373 18.627,0 12,0 L12,0 Z" id="Fill-60" stroke="#FFFFFF" sketch:type="MSShapeGroup"></path>
            <path d="M12,12.959 L6,12.959 L6,13.959 L13,13.959 L13,4 L12,4 L12,12.959" id="Fill-61" sketch:type="MSShapeGroup"></path>
        </g>
    </g>
</svg>